<svg aria-hidden="true" style="width:0;height:0;position:absolute;overflow:hidden" xmlns="http://www.w3.org/2000/svg"><defs><symbol id="icon-day" viewBox="0 0 32 32"><path d="M4 15H1a1 1 0 0 0 0 2h3a1 1 0 0 0 0-2zM16 5a1 1 0 0 0 1-1V1a1 1 0 0 0-2 0v3a1 1 0 0 0 1 1zm9.621 2.78 2.101-2.101a.99.99 0 1 0-1.401-1.401L24.22 6.379a.99.99 0 1 0 1.401 1.401zM7.41 23.19l-2.101 2.101a.99.99 0 1 0 1.401 1.401l2.101-2.101A.99.99 0 1 0 7.41 23.19zM6.808 8.222a.999.999 0 1 0 1.414-1.414L6.101 4.686A.999.999 0 1 0 4.687 6.1l2.121 2.122zM16 27a1 1 0 0 0-1 1v3a1 1 0 0 0 2 0v-3a1 1 0 0 0-1-1zm9.192-3.222a.999.999 0 1 0-1.414 1.414l2.121 2.121a.999.999 0 1 0 1.414-1.414l-2.121-2.121zM31 15h-3a1 1 0 0 0 0 2h3a1 1 0 0 0 0-2zM16 6.994c-4.974 0-9.006 4.032-9.006 9.006s4.032 9.006 9.006 9.006 9.006-4.032 9.006-9.006S20.974 6.994 16 6.994zm0 16.004a6.998 6.998 0 1 1 0-13.996 6.998 6.998 0 0 1 0 13.996z"/></symbol><symbol id="icon-dark" viewBox="0 0 32 32"><path d="M16 29.333c-7.333 0-13.333-6-13.333-13.333 0-6.267 4.533-11.867 10.667-13.067.533-.133 1.2.133 1.467.667s.133 1.2-.267 1.6c-1.6 1.6-2.533 3.867-2.533 6.133A8.65 8.65 0 0 0 20.668 20c2.267 0 4.533-.933 6.133-2.533.4-.4 1.067-.533 1.6-.267s.8.8.667 1.467c-1.2 6.133-6.8 10.667-13.067 10.667zM10.133 7.067c-2.933 2-4.8 5.2-4.8 8.933 0 5.867 4.8 10.667 10.667 10.667 3.733 0 6.933-1.867 8.933-4.8-1.333.533-2.8.8-4.267.8A11.323 11.323 0 0 1 9.333 11.334c0-1.467.267-2.933.8-4.267z"/></symbol><symbol id="icon-film" viewBox="0 0 32 32"><path fill="none" stroke="#fff" style="stroke:var(--color1,#fff)" stroke-linejoin="round" stroke-linecap="round" stroke-width="2.667" d="M26.427 2.667H5.574a2.907 2.907 0 0 0-2.907 2.907v20.853a2.907 2.907 0 0 0 2.907 2.907h20.853a2.907 2.907 0 0 0 2.907-2.907V5.574a2.907 2.907 0 0 0-2.907-2.907zM9.333 2.667v26.667M22.667 2.667v26.667M2.667 16h26.667M2.667 9.333h6.667M2.667 22.667h6.667M22.667 22.667h6.667M22.667 9.333h6.667"/></symbol><symbol id="icon-search-2" viewBox="0 0 32 32"><path fill="none" stroke="#fff" style="stroke:var(--color1,#fff)" stroke-linejoin="round" stroke-linecap="round" stroke-width="2.667" d="M14.667 25.333c5.891 0 10.667-4.776 10.667-10.667S20.558 3.999 14.667 3.999 4 8.775 4 14.666s4.776 10.667 10.667 10.667zM28 28.001l-5.8-5.8"/></symbol></defs></svg>